<?xml version="1.0" standalone="no"?>
<!DOCTYPE svg PUBLIC "-//W3C//DTD SVG 20010904//EN"
 "http://www.w3.org/TR/2001/REC-SVG-20010904/DTD/svg10.dtd">
<svg version="1.0" xmlns="http://www.w3.org/2000/svg"
 width="265.000000pt" height="265.000000pt" viewBox="0 0 265.000000 265.000000"
 preserveAspectRatio="xMidYMid meet">
<g transform="translate(0.000000,265.000000) scale(0.100000,-0.100000)"
fill="#000000" stroke="none">
<path d="M48 2633 c-15 -10 -32 -29 -37 -43 -12 -29 -14 -1593 -2 -1636 4 -15
20 -37 35 -48 27 -20 39 -21 427 -22 220 0 402 -4 406 -7 3 -4 7 -189 7 -412
l1 -405 28 -27 27 -28 813 -1 c446 -1 822 2 834 7 12 4 30 20 40 36 17 26 18
73 19 833 1 658 -2 810 -13 832 -27 54 -34 55 -456 54 -214 0 -394 2 -400 6
-9 5 -12 117 -12 406 0 366 -2 400 -18 425 -10 16 -29 32 -43 37 -15 6 -341
10 -827 10 -734 -1 -804 -2 -829 -17z"/>
</g>
</svg>
