<svg xmlns="http://www.w3.org/2000/svg" xmlns:xlink="http://www.w3.org/1999/xlink" viewBox="0,0,256,256" width="26px" height="26px" fill-rule="nonzero"><g fill="#ffffff" fill-rule="nonzero" stroke="none" stroke-width="1" stroke-linecap="butt" stroke-linejoin="miter" stroke-miterlimit="10" stroke-dasharray="" stroke-dashoffset="0" font-family="none" font-weight="none" font-size="none" text-anchor="none" style="mix-blend-mode: normal"><g transform="scale(9.84615,9.84615)"><path d="M12.3125,0c-1.88672,0.00391 -1.74609,0.50781 -0.75,1.5l3.21875,3.21875l-5.53125,5.53125c-1.14453,1.14453 -1.14453,2.98047 0,4.125l2.4375,2.40625c1.14453,1.14063 2.98047,1.14453 4.125,0l5.53125,-5.5l3.15625,3.15625c1.10156,1.10156 1.5,1.13672 1.5,-0.75v-10.28125c0,-3.4375 0.03516,-3.40625 -3.40625,-3.40625zM4.875,5c-2.69141,0 -4.875,2.18359 -4.875,4.875v11.25c0,2.69141 2.18359,4.875 4.875,4.875h11.25c2.69141,0 4.875,-2.18359 4.875,-4.875v-6.375l-3,3v3.375c0,1.03516 -0.83984,1.875 -1.875,1.875h-11.25c-1.03516,0 -1.875,-0.83984 -1.875,-1.875v-11.25c0,-1.03516 0.83984,-1.875 1.875,-1.875h3.4375l3,-3z"></path></g></g></svg>